<?xml version="1.0" encoding="utf-8"?>
<!-- Generator: Adobe Illustrator 24.0.0, SVG Export Plug-In . SVG Version: 6.00 Build 0)  -->
<svg version="1.1" id="Layer_1" xmlns="http://www.w3.org/2000/svg" xmlns:xlink="http://www.w3.org/1999/xlink" x="0px" y="0px"
	 viewBox="0 0 38 44" style="enable-background:new 0 0 38 44;" xml:space="preserve">
<style type="text/css">
	.st0{opacity:0.5;fill-rule:evenodd;clip-rule:evenodd;fill:#BB9B64;}
	.st1{opacity:0.3;fill-rule:evenodd;clip-rule:evenodd;fill:#BB9B64;}
</style>
<g>
	<path class="st0" d="M37.3,22.2c-0.5-0.3-1.2-0.1-1.4,0.4L19,41.5L2.1,22.6c-0.3-0.5-0.9-0.6-1.4-0.4c-0.5,0.3-0.7,0.9-0.4,1.3
		L18,43.4c0.2,0.3,0.6,0.5,1,0.5s0.8-0.2,1-0.5l17.7-19.8C38,23.1,37.8,22.5,37.3,22.2z"/>
	<path class="st1" d="M18,21.4c0.2,0.3,0.6,0.5,1,0.5s0.8-0.2,1-0.5L37.7,1.6c0.3-0.5,0.1-1.1-0.4-1.3c-0.5-0.3-1.2-0.1-1.4,0.4
		L19,19.5L2.1,0.6C1.8,0.1,1.2,0,0.7,0.2C0.2,0.5,0,1.1,0.3,1.6L18,21.4z"/>
</g>
</svg>
